<mxfile host="app.diagrams.net" modified="2023-06-01T16:11:45.108Z" agent="Mozilla/5.0 (Macintosh; Intel Mac OS X 10_15_7) AppleWebKit/605.1.15 (KHTML, like Gecko) Version/16.5 Safari/605.1.15" etag="F4f9_D9_ATcLn78oeXbs" version="21.3.6" type="google">
  <diagram id="ihyrI3AaGvKOYQR9nSAO" name="Page-1">
    <mxGraphModel grid="1" page="1" gridSize="10" guides="1" tooltips="1" connect="1" arrows="1" fold="1" pageScale="1" pageWidth="827" pageHeight="1169" math="0" shadow="0">
      <root>
        <mxCell id="0" />
        <mxCell id="1" parent="0" />
        <mxCell id="72h56-NaAaJYCsr5_jB7-1" value="&lt;b&gt;Authentication Mechanism&lt;/b&gt;&lt;br&gt;(Controller)" style="rounded=0;whiteSpace=wrap;html=1;" vertex="1" parent="1">
          <mxGeometry x="170" y="70" width="120" height="60" as="geometry" />
        </mxCell>
        <mxCell id="72h56-NaAaJYCsr5_jB7-2" value="&lt;b&gt;Login Form/Dialog&lt;/b&gt;&lt;br&gt;(View)" style="rounded=0;whiteSpace=wrap;html=1;" vertex="1" parent="1">
          <mxGeometry x="90" y="180" width="120" height="60" as="geometry" />
        </mxCell>
        <mxCell id="72h56-NaAaJYCsr5_jB7-3" value="&lt;b&gt;Identity Store&lt;/b&gt;&lt;br&gt;(Model)" style="rounded=0;whiteSpace=wrap;html=1;" vertex="1" parent="1">
          <mxGeometry x="250" y="180" width="120" height="60" as="geometry" />
        </mxCell>
        <mxCell id="72h56-NaAaJYCsr5_jB7-4" value="" style="endArrow=classic;startArrow=classic;html=1;exitX=0.5;exitY=0;exitDx=0;exitDy=0;entryX=0.25;entryY=1;entryDx=0;entryDy=0;" edge="1" parent="1" source="72h56-NaAaJYCsr5_jB7-2" target="72h56-NaAaJYCsr5_jB7-1">
          <mxGeometry width="50" height="50" relative="1" as="geometry">
            <mxPoint x="390" y="560" as="sourcePoint" />
            <mxPoint x="440" y="510" as="targetPoint" />
          </mxGeometry>
        </mxCell>
        <mxCell id="72h56-NaAaJYCsr5_jB7-5" value="" style="endArrow=classic;startArrow=classic;html=1;exitX=0.75;exitY=1;exitDx=0;exitDy=0;entryX=0.5;entryY=0;entryDx=0;entryDy=0;" edge="1" parent="1" source="72h56-NaAaJYCsr5_jB7-1" target="72h56-NaAaJYCsr5_jB7-3">
          <mxGeometry width="50" height="50" relative="1" as="geometry">
            <mxPoint x="390" y="560" as="sourcePoint" />
            <mxPoint x="440" y="510" as="targetPoint" />
          </mxGeometry>
        </mxCell>
        <mxCell id="72h56-NaAaJYCsr5_jB7-6" value="&lt;font style=&quot;font-size: 9px&quot;&gt;HTTP&lt;br&gt;Cookies&lt;br&gt;Headers&lt;br&gt;URLs&lt;/font&gt;" style="text;html=1;strokeColor=none;fillColor=none;align=center;verticalAlign=middle;whiteSpace=wrap;rounded=0;" vertex="1" parent="1">
          <mxGeometry x="110" y="110" width="70" height="60" as="geometry" />
        </mxCell>
        <mxCell id="72h56-NaAaJYCsr5_jB7-8" value="&lt;span style=&quot;font-size: 9px&quot;&gt;Credentials&lt;br&gt;Caller name&lt;br&gt;Groups&lt;br&gt;&lt;/span&gt;" style="text;html=1;strokeColor=none;fillColor=none;align=center;verticalAlign=middle;whiteSpace=wrap;rounded=0;" vertex="1" parent="1">
          <mxGeometry x="290" y="110" width="70" height="60" as="geometry" />
        </mxCell>
      </root>
    </mxGraphModel>
  </diagram>
</mxfile>
